<?xml version="1.0" standalone="no"?>
<!DOCTYPE svg PUBLIC "-//W3C//DTD SVG 20010904//EN"
 "http://www.w3.org/TR/2001/REC-SVG-20010904/DTD/svg10.dtd">
<svg version="1.0" xmlns="http://www.w3.org/2000/svg"
 width="2896.000000pt" height="2896.000000pt" viewBox="0 0 2896.000000 2896.000000"
 preserveAspectRatio="xMidYMid meet">
<metadata>
Created by potrace 1.14, written by Peter Selinger 2001-2017
</metadata>
<g transform="translate(0.000000,2896.000000) scale(0.100000,-0.100000)"
fill="#000000" stroke="none">
<path d="M10059 22314 c-12 -15 -11 -16 10 -9 21 6 22 5 10 -8 -8 -8 -17 -13
-20 -11 -3 2 -6 -4 -6 -12 0 -8 6 -13 13 -10 8 3 11 0 7 -9 -3 -8 -8 -13 -12
-10 -4 2 -8 -3 -8 -11 0 -9 6 -13 16 -9 13 5 13 4 4 -6 -10 -10 -10 -16 2 -29
13 -14 13 -17 0 -17 -8 0 -12 4 -9 9 3 4 1 8 -5 8 -5 0 -9 -9 -8 -20 1 -13 6
-19 16 -15 12 5 12 3 0 -11 -18 -22 -21 -47 -4 -40 8 3 17 0 21 -6 4 -7 3 -8
-4 -4 -6 3 -16 -3 -23 -15 -10 -20 -9 -21 7 -15 15 6 16 5 7 -5 -10 -10 -10
-16 2 -29 13 -14 13 -17 0 -17 -8 0 -12 4 -9 9 3 4 1 8 -5 8 -5 0 -9 -9 -8
-20 1 -13 6 -19 16 -15 12 5 12 3 0 -11 -15 -18 -21 -44 -10 -44 3 0 6 -19 5
-42 -1 -24 4 -49 10 -57 7 -9 1 -8 -16 3 -16 10 -28 14 -28 9 0 -5 -9 -9 -21
-10 -18 -2 -19 0 -7 15 11 15 11 15 -3 5 -8 -7 -25 -11 -38 -8 -14 2 -19 0
-15 -7 5 -8 1 -9 -10 -5 -10 4 -15 3 -11 -3 3 -6 1 -10 -4 -10 -11 0 -15 13
-12 35 1 6 -12 -5 -29 -23 -31 -34 -37 -34 -20 -1 13 24 2 25 -17 2 -14 -17
-14 -17 -9 2 5 17 3 16 -14 -5 -19 -24 -19 -25 -15 -2 5 31 -9 28 -22 -5 -7
-16 -12 -21 -11 -13 1 30 -2 43 -9 37 -3 -4 -13 -1 -22 5 -9 7 -7 2 4 -11 l20
-24 -25 13 c-23 12 -24 12 -11 -3 18 -22 7 -22 -15 0 -18 18 -48 28 -38 12 3
-5 9 -7 13 -5 4 3 8 -1 8 -9 0 -11 -6 -10 -26 4 -24 17 -57 18 -47 2 3 -4 -4
-8 -15 -8 -10 -1 -19 3 -19 8 0 6 5 7 12 3 7 -5 8 -3 3 6 -6 10 -11 10 -20 -3
-7 -9 -16 -13 -21 -9 -5 4 0 -3 11 -16 14 -17 15 -21 4 -17 -10 4 -16 0 -16
-9 0 -8 4 -13 8 -10 4 2 10 0 14 -6 3 -5 -2 -10 -12 -11 -11 0 -13 -3 -5 -6
10 -4 9 -9 -5 -20 -16 -13 -16 -14 -1 -9 10 3 20 1 24 -5 3 -6 -3 -13 -14 -16
-17 -4 -18 -8 -9 -18 7 -7 16 -10 21 -7 5 3 6 0 2 -7 -5 -7 -14 -10 -22 -7
-12 4 -12 2 -4 -14 6 -11 13 -20 16 -20 3 0 2 5 -2 12 -5 7 -3 8 6 3 10 -6 9
-11 -5 -22 -16 -11 -17 -15 -5 -26 10 -10 11 -9 5 2 -5 10 -4 12 4 7 15 -10 5
-26 -17 -27 -12 0 -11 -3 6 -9 12 -5 22 -12 22 -14 0 -3 -6 -3 -13 0 -8 3 -14
-2 -14 -10 0 -8 4 -13 8 -10 4 2 10 0 13 -5 3 -5 -4 -11 -15 -14 -12 -3 -18
-10 -14 -16 3 -6 10 -9 15 -6 5 3 11 1 15 -5 3 -5 0 -10 -7 -10 -10 0 -14 -12
-12 -40 1 -25 -3 -40 -10 -40 -6 0 -6 -4 3 -9 8 -5 10 -14 5 -22 -6 -10 -3
-10 12 1 18 14 18 14 5 -3 -8 -10 -20 -16 -28 -13 -17 7 -44 -4 -37 -15 3 -5
-2 -6 -10 -3 -9 3 -14 10 -11 14 3 5 -3 7 -12 5 -10 -1 -17 -9 -15 -19 2 -9
-2 -16 -8 -16 -5 0 -9 3 -9 8 4 27 -1 34 -17 21 -10 -8 -18 -9 -22 -2 -7 11
-47 11 -58 1 -3 -4 6 -5 20 -4 15 2 24 1 21 -3 -13 -12 -63 -8 -58 5 5 14 -22
13 -34 -1 -4 -4 -2 -5 6 0 9 5 12 4 7 -3 -3 -6 -15 -9 -26 -7 -11 2 -20 0 -20
-6 0 -5 -5 -9 -11 -9 -5 0 -8 4 -5 8 2 4 1 14 -5 22 -7 12 -9 12 -9 1 0 -11
-3 -11 -17 0 -15 12 -16 12 -10 -3 4 -13 1 -16 -14 -13 -10 2 -19 -1 -19 -7 0
-5 -9 0 -21 13 -16 18 -19 20 -15 6 3 -10 2 -16 -3 -12 -5 3 -12 -1 -14 -7 -4
-10 -6 -10 -6 0 -1 7 -5 10 -11 7 -5 -3 -8 0 -7 7 2 7 2 10 0 5 -3 -4 -9 -5
-14 -2 -5 4 -6 -2 -2 -11 5 -14 3 -16 -11 -11 -11 4 -15 3 -11 -4 4 -6 13 -8
21 -5 8 3 14 1 14 -4 0 -6 -9 -10 -20 -10 -11 0 -20 -4 -20 -10 0 -5 8 -7 18
-3 9 3 14 3 10 -2 -4 -4 -3 -14 4 -22 9 -11 8 -13 -2 -11 -15 4 -33 -49 -19
-58 5 -3 13 -3 17 0 5 3 9 -1 9 -8 0 -8 -8 -11 -19 -8 -10 2 -18 -1 -18 -7 0
-7 4 -10 8 -7 4 3 8 -12 8 -32 1 -20 4 -46 9 -57 8 -20 8 -20 -11 0 -10 12
-15 15 -10 8 4 -7 6 -19 3 -28 -4 -8 3 -21 16 -31 l22 -16 -22 7 c-14 4 -23 2
-23 -5 0 -6 5 -8 10 -5 6 3 10 2 10 -4 0 -6 8 -8 18 -5 16 5 16 5 -1 -6 -9 -6
-22 -8 -28 -4 -8 4 -8 1 0 -13 7 -15 7 -23 -2 -32 -9 -10 -9 -11 4 -6 10 4 16
0 16 -9 0 -8 -4 -13 -9 -10 -4 3 -8 -2 -8 -11 0 -11 5 -15 15 -12 8 4 17 2 20
-4 4 -5 3 -9 -2 -8 -18 3 -30 -2 -51 -21 -12 -12 -22 -16 -22 -10 0 5 -5 10
-11 10 -5 0 -7 -6 -3 -12 5 -9 2 -9 -9 1 -13 10 -17 11 -17 1 0 -9 -7 -7 -20
5 -18 16 -25 14 -21 -7 0 -5 -3 -8 -9 -8 -5 0 -10 5 -10 11 0 8 -5 8 -15 -1
-14 -12 -19 -7 -16 13 1 5 -3 6 -9 2 -6 -3 -7 -11 -4 -17 5 -7 2 -8 -7 -2 -18
11 -80 13 -73 2 3 -4 0 -8 -5 -8 -6 0 -11 5 -11 11 0 8 -5 8 -15 -1 -8 -7 -15
-9 -15 -4 0 5 -20 9 -44 10 -29 0 -43 -3 -39 -10 3 -6 0 -6 -7 1 -11 10 -16 9
-27 -5 -8 -9 -12 -12 -9 -6 3 7 -1 14 -8 17 -17 7 -39 -16 -28 -28 4 -5 -2 -5
-12 -1 -15 5 -16 4 -8 -7 7 -8 7 -18 2 -27 -13 -20 -12 -30 1 -30 5 0 8 4 5 9
-3 4 1 16 8 26 12 17 13 17 11 -3 0 -11 -8 -28 -16 -38 -13 -16 -12 -17 6 -11
20 7 20 7 1 -8 -11 -8 -17 -16 -13 -16 4 -1 11 -2 16 -3 5 0 13 -5 18 -10 4
-5 3 -6 -3 -3 -6 4 -20 -1 -30 -9 -10 -9 -13 -13 -6 -9 15 8 17 -51 2 -60 -13
-8 -13 -25 0 -25 6 0 9 3 8 8 -2 4 0 8 5 10 18 6 19 0 1 -20 -19 -21 -19 -21
1 -15 20 7 20 7 1 -8 -18 -13 -15 -20 7 -16 4 0 7 -3 7 -9 0 -5 -6 -10 -14
-10 -8 0 -18 -5 -22 -12 -4 -6 -3 -8 3 -5 7 4 12 -7 15 -27 2 -19 1 -33 -3
-30 -4 2 -11 -1 -15 -7 -4 -7 -3 -9 3 -6 6 4 16 1 22 -7 9 -11 8 -14 -3 -12
-8 0 -15 -3 -15 -9 0 -5 8 -9 17 -7 15 2 15 1 2 -7 -8 -6 -11 -11 -7 -11 13 0
-12 -39 -32 -49 -13 -7 -18 -6 -18 4 0 8 5 11 10 8 10 -6 27 14 27 32 0 6 -5
3 -10 -5 -5 -8 -14 -15 -19 -15 -6 0 -17 -9 -26 -20 -15 -20 -16 -20 -13 0 2
15 -3 20 -22 20 -14 1 -31 -3 -37 -8 -9 -6 -19 -5 -29 4 -15 12 -16 11 -11
-11 4 -14 4 -19 1 -12 -3 6 -11 9 -17 5 -18 -11 -36 -12 -42 -3 -3 5 3 7 15 5
21 -4 36 10 21 19 -5 4 -12 2 -16 -4 -4 -6 -12 -7 -18 -3 -18 11 -38 12 -31 2
3 -5 10 -6 16 -3 7 4 8 2 4 -4 -4 -6 -14 -8 -24 -5 -15 6 -16 5 -2 -13 8 -10
-1 -5 -19 11 -32 29 -33 29 -21 5 l13 -25 -26 23 c-16 15 -27 20 -32 13 -3 -6
-11 -9 -16 -6 -5 4 -17 8 -28 10 -15 3 -18 -1 -14 -18 4 -20 3 -20 -11 3 -11
19 -15 21 -16 8 0 -9 -5 -20 -12 -24 -6 -4 -8 -3 -5 3 4 6 -2 13 -13 16 -17 4
-18 2 -9 -14 7 -14 7 -19 -2 -17 -15 4 -20 -45 -5 -54 8 -6 7 -11 -3 -17 -9
-6 -10 -11 -2 -15 6 -4 11 -13 11 -19 0 -7 -4 -6 -10 3 -5 8 -10 10 -10 5 0
-6 5 -16 12 -23 9 -9 9 -12 -1 -12 -11 0 -11 -3 0 -17 10 -11 10 -14 2 -9 -7
4 -13 2 -13 -3 0 -6 5 -11 11 -11 8 0 8 -4 0 -13 -8 -10 -7 -17 2 -27 8 -9 9
-11 0 -6 -17 9 -10 -43 8 -56 11 -8 10 -9 -3 -4 -10 3 -18 1 -18 -4 0 -6 5
-10 11 -10 8 0 8 -4 0 -13 -8 -10 -7 -17 2 -27 9 -10 9 -11 0 -6 -7 4 -13 2
-13 -3 0 -6 5 -11 10 -11 6 0 10 -5 10 -11 0 -5 -4 -8 -9 -5 -10 7 -7 -46 4
-64 5 -9 4 -11 -3 -6 -7 4 -12 3 -12 -3 0 -5 6 -12 13 -14 8 -4 8 -8 2 -14
-13 -11 -18 -36 -5 -28 14 9 13 -8 -2 -23 -9 -9 -9 -12 0 -12 7 0 12 -5 12
-11 0 -5 -4 -8 -9 -4 -5 3 -13 1 -16 -5 -4 -6 -3 -9 2 -8 7 3 15 -7 12 -14 -6
-15 -4 -60 3 -64 4 -3 3 -14 -2 -25 -8 -14 -7 -19 1 -19 8 0 7 -5 -2 -17 -11
-13 -11 -17 -2 -20 9 -3 10 -10 3 -24 -8 -14 -7 -19 1 -19 8 0 8 -4 -1 -15 -9
-11 -9 -15 -1 -15 7 0 9 -5 5 -12 -12 -19 -12 -48 -1 -48 5 0 4 -7 -3 -15 -9
-11 -9 -15 -1 -15 7 0 9 -5 5 -11 -10 -17 -11 -60 -2 -87 5 -15 4 -21 -2 -17
-6 3 -10 2 -10 -4 0 -5 6 -12 13 -14 9 -4 9 -8 -2 -15 -9 -7 -10 -12 -2 -16 6
-4 11 -13 11 -19 0 -7 -4 -6 -10 3 -5 8 -10 10 -10 5 0 -6 5 -16 12 -23 9 -9
9 -12 -1 -12 -11 0 -11 -3 0 -17 10 -11 10 -14 2 -9 -7 4 -13 2 -13 -3 0 -6 5
-11 11 -11 8 0 8 -4 0 -13 -8 -10 -7 -17 2 -27 8 -9 9 -11 0 -6 -17 9 -10 -43
8 -56 11 -8 10 -9 -3 -4 -10 3 -18 1 -18 -4 0 -6 5 -10 11 -10 6 0 7 -5 2 -12
-11 -19 -13 -39 -2 -32 5 3 9 0 9 -5 0 -6 -5 -11 -11 -11 -8 0 -7 -6 2 -17 8
-9 9 -14 3 -10 -7 4 -10 -10 -10 -39 1 -24 5 -44 10 -44 5 0 3 -7 -4 -15 -9
-10 -9 -15 -1 -15 6 0 11 -5 11 -11 0 -5 -4 -8 -8 -5 -11 7 -9 -55 2 -73 6 -9
5 -12 -2 -7 -6 3 -14 2 -17 -4 -4 -6 -3 -10 2 -9 20 3 25 -2 13 -16 -9 -10 -9
-15 -1 -15 6 0 11 -5 11 -11 0 -5 -4 -8 -9 -4 -5 3 -13 1 -16 -5 -4 -6 -3 -10
2 -9 20 3 25 -2 13 -16 -9 -10 -9 -15 -1 -15 6 0 11 -5 11 -11 0 -5 -4 -8 -9
-4 -5 3 -13 1 -16 -5 -4 -6 -3 -9 2 -8 7 3 15 -7 12 -14 -5 -14 -4 -56 2 -53
9 6 6 -15 -4 -32 -5 -7 -4 -13 1 -13 5 0 9 -13 8 -30 0 -16 -5 -30 -11 -30 -5
0 -3 -5 5 -10 12 -8 12 -10 1 -10 -11 0 -11 -3 0 -17 8 -9 9 -14 3 -10 -14 8
-14 -65 1 -75 6 -5 5 -11 -4 -17 -9 -6 -10 -11 -2 -15 6 -4 11 -13 11 -19 0
-7 -4 -6 -10 3 -5 8 -10 10 -10 5 0 -6 5 -16 12 -23 9 -9 9 -12 -1 -12 -11 0
-11 -3 0 -17 10 -11 10 -14 2 -9 -7 4 -13 2 -13 -3 0 -6 5 -11 11 -11 8 0 8
-4 0 -13 -8 -10 -7 -17 2 -27 8 -9 9 -11 0 -6 -17 9 -10 -43 8 -56 11 -8 10
-9 -3 -4 -10 3 -18 1 -18 -4 0 -6 5 -10 11 -10 8 0 8 -4 0 -13 -8 -10 -7 -17
2 -27 9 -10 9 -11 0 -6 -7 4 -13 2 -13 -3 0 -6 5 -11 10 -11 6 0 10 -5 10 -11
0 -5 -4 -8 -9 -5 -10 7 -7 -46 4 -64 5 -9 4 -11 -3 -6 -7 4 -12 3 -12 -3 0 -5
6 -12 13 -14 8 -4 8 -8 2 -14 -13 -11 -18 -36 -5 -28 14 9 13 -8 -2 -23 -9 -9
-9 -12 0 -12 7 0 12 -5 12 -11 0 -5 -4 -8 -9 -4 -5 3 -13 1 -16 -5 -4 -6 -3
-9 2 -8 7 3 15 -7 12 -14 -6 -15 -4 -60 3 -64 4 -3 3 -14 -2 -25 -8 -14 -7
-19 1 -19 8 0 7 -5 -2 -17 -11 -13 -11 -17 -2 -20 9 -3 10 -10 3 -24 -8 -14
-7 -19 1 -19 8 0 8 -4 -1 -15 -9 -11 -9 -15 -1 -15 7 0 9 -5 5 -12 -12 -19
-12 -48 -1 -48 5 0 4 -7 -3 -15 -9 -11 -9 -15 -1 -15 7 0 9 -5 5 -11 -10 -17
-11 -60 -2 -87 5 -15 4 -21 -2 -17 -6 3 -10 2 -10 -4 0 -5 6 -12 13 -14 9 -4
9 -8 -2 -15 -9 -7 -10 -12 -2 -16 6 -4 11 -13 11 -19 0 -7 -4 -6 -10 3 -5 8
-10 10 -10 5 0 -6 5 -16 12 -23 9 -9 9 -12 -1 -12 -11 0 -11 -3 0 -17 10 -11
10 -14 2 -9 -7 4 -13 2 -13 -3 0 -6 5 -11 11 -11 8 0 8 -4 0 -13 -8 -10 -7
-17 2 -27 8 -9 9 -11 0 -6 -17 9 -10 -43 8 -56 11 -8 10 -9 -3 -4 -10 3 -18 1
-18 -4 0 -6 5 -10 11 -10 6 0 7 -5 2 -12 -11 -19 -13 -39 -2 -32 5 3 9 0 9 -5
0 -6 -5 -11 -11 -11 -8 0 -7 -6 2 -17 8 -9 9 -14 3 -10 -7 4 -10 -10 -10 -39
1 -24 5 -44 10 -44 5 0 3 -7 -4 -15 -9 -10 -9 -15 -1 -15 6 0 11 -5 11 -11 0
-5 -4 -8 -8 -5 -11 7 -9 -55 2 -73 6 -9 5 -12 -2 -7 -6 3 -14 2 -17 -4 -4 -6
-3 -10 2 -9 20 3 25 -2 13 -16 -9 -10 -9 -15 -1 -15 6 0 11 -5 11 -11 0 -5 -4
-8 -9 -4 -5 3 -13 1 -16 -5 -4 -6 -3 -10 2 -9 20 3 25 -2 13 -16 -9 -10 -9
-15 -1 -15 6 0 11 -5 11 -11 0 -5 -4 -8 -9 -4 -5 3 -13 1 -16 -5 -4 -6 -3 -9
2 -8 7 3 15 -7 12 -14 -5 -14 -4 -56 2 -53 9 6 6 -15 -4 -32 -5 -7 -4 -13 1
-13 5 0 9 -13 8 -30 0 -16 -5 -30 -11 -30 -5 0 -3 -5 5 -10 12 -8 12 -10 1
-10 -11 0 -11 -3 0 -17 8 -9 9 -14 3 -10 -14 8 -14 -65 1 -75 6 -5 5 -11 -4
-17 -9 -6 -10 -11 -2 -15 6 -4 11 -13 11 -19 0 -7 -4 -6 -10 3 -5 8 -10 10
-10 5 0 -6 5 -16 12 -23 9 -9 9 -12 -1 -12 -11 0 -11 -3 0 -17 10 -11 10 -14
2 -9 -7 4 -13 2 -13 -3 0 -6 5 -11 11 -11 8 0 8 -4 0 -13 -8 -10 -7 -17 2 -27
8 -9 9 -11 0 -6 -17 9 -10 -43 8 -56 11 -8 10 -9 -3 -4 -10 3 -18 1 -18 -4 0
-6 5 -10 11 -10 6 0 7 -5 2 -12 -11 -19 -13 -39 -2 -32 5 3 9 0 9 -5 0 -6 -5
-11 -11 -11 -8 0 -7 -6 2 -17 8 -9 9 -14 3 -10 -7 4 -10 -10 -10 -39 1 -24 5
-44 10 -44 5 0 3 -7 -4 -15 -9 -10 -9 -15 -1 -15 6 0 11 -5 11 -11 0 -5 -4 -8
-8 -5 -11 7 -9 -55 2 -73 6 -9 5 -12 -2 -7 -6 3 -14 2 -17 -4 -4 -6 -3 -10 2
-9 20 3 25 -2 13 -16 -9 -10 -9 -15 -1 -15 6 0 11 -5 11 -11 0 -5 -4 -8 -9 -4
-5 3 -13 1 -16 -5 -4 -6 -3 -10 2 -9 20 3 25 -2 13 -16 -9 -10 -9 -15 -1 -15
6 0 11 -5 11 -11 0 -5 -4 -8 -9 -4 -5 3 -13 1 -16 -5 -4 -6 -3 -9 2 -8 7 3 15
-7 12 -14 -5 -14 -4 -56 2 -53 9 6 6 -15 -4 -32 -5 -7 -4 -13 1 -13 5 0 9 -13
8 -30 0 -16 -5 -30 -11 -30 -5 0 -3 -5 5 -10 12 -8 12 -10 1 -10 -11 0 -11 -3
0 -17 8 -9 9 -14 3 -10 -7 4 -11 -2 -10 -16 1 -13 8 -21 16 -19 11 2 11 -1 -2
-11 -14 -11 -15 -16 -5 -27 7 -7 7 -10 1 -7 -7 4 -10 -10 -10 -39 1 -24 5 -44
10 -44 5 0 3 -7 -4 -15 -9 -10 -9 -15 -1 -15 6 0 11 -5 11 -11 0 -5 -4 -8 -8
-5 -11 7 -9 -55 2 -73 6 -9 5 -12 -2 -7 -6 3 -14 2 -17 -4 -4 -6 -3 -10 2 -9
20 3 25 -2 13 -16 -9 -10 -9 -15 -1 -15 6 0 11 -5 11 -11 0 -5 -4 -8 -9 -4 -5
3 -13 1 -16 -5 -4 -6 -3 -10 2 -9 20 3 25 -2 13 -16 -9 -10 -9 -15 -1 -15 6 0
11 -5 11 -11 0 -5 -4 -8 -9 -4 -5 3 -13 1 -16 -5 -4 -6 -3 -9 2 -8 7 3 15 -7
12 -14 -5 -14 -4 -56 2 -53 9 6 6 -15 -4 -32 -5 -7 -4 -13 1 -13 5 0 9 -13 8
-30 0 -16 -5 -30 -11 -30 -5 0 -3 -5 5 -10 12 -8 12 -10 1 -10 -11 0 -11 -3 0
-17 8 -9 9 -14 3 -10 -7 4 -11 -2 -10 -16 1 -13 8 -21 16 -19 11 2 11 -1 -2
-11 -14 -11 -15 -16 -5 -27 7 -7 7 -10 1 -7 -7 4 -10 -10 -10 -39 1 -24 5 -44
10 -44 5 0 3 -7 -4 -15 -9 -10 -9 -15 -1 -15 6 0 11 -5 11 -11 0 -5 -4 -8 -8
-5 -11 7 -9 -55 2 -73 6 -9 5 -12 -2 -7 -6 3 -14 2 -17 -4 -4 -6 -3 -10 2 -9
20 3 25 -2 13 -16 -9 -10 -9 -15 -1 -15 6 0 11 -5 11 -11 0 -5 -4 -8 -9 -4 -5
3 -13 1 -16 -5 -4 -6 -3 -10 2 -9 20 3 25 -2 13 -16 -9 -10 -9 -15 -1 -15 6 0
11 -5 11 -11 0 -5 -4 -8 -9 -4 -5 3 -13 1 -16 -5 -4 -6 -3 -9 2 -8 7 3 15 -7
12 -14 -5 -14 -4 -56 2 -53 9 6 6 -15 -4 -32 -5 -7 -4 -13 1 -13 5 0 9 -13 8
-30 0 -16 -5 -30 -11 -30 -5 0 -3 -5 5 -10 12 -8 12 -10 1 -10 -11 0 -11 -3 0
-17 8 -9 9 -14 3 -10 -7 4 -11 -2 -10 -16 1 -13 8 -21 16 -19 11 2 11 -1 -2
-11 -14 -11 -15 -16 -5 -27 7 -7 7 -10 1 -7 -7 4 -10 -10 -10 -39 1 -24 5 -44
10 -44 5 0 3 -7 -4 -15 -9 -10 -9 -15 -1 -15 6 0 11 -5 11 -11 0 -5 -4 -8 -8
-5 -11 7 -9 -55 2 -73 6 -9 5 -12 -2 -7 -6 3 -14 2 -17 -4 -4 -6 -3 -10 2 -9
20 3 25 -2 13 -16 -9 -10 -9 -15 -1 -15 6 0 11 -5 11 -11 0 -5 -4 -8 -9 -4 -5
3 -13 1 -16 -5 -4 -6 -3 -10 2 -9 20 3 25 -2 13 -16 -9 -10 -9 -15 -1 -15 6 0
11 -5 11 -11 0 -5 -4 -8 -9 -4 -5 3 -13 1 -16 -5 -4 -6 -3 -9 2 -8 7 3 15 -7
12 -14 -5 -14 -4 -56 2 -53 9 6 6 -15 -4 -32 -5 -7 -4 -13 1 -13 5 0 9 -13 8
-30 0 -16 -5 -30 -11 -30 -5 0 -3 -5 5 -10 12 -8 12 -10 1 -10 -11 0 -11 -3 0
-17 8 -9 9 -14 3 -10 -14 8 -14 -65 1 -75 6 -5 5 -11 -4 -17 -9 -6 -10 -11 -2
-15 6 -4 11 -13 11 -19 0 -7 -4 -6 -10 3 -5 8 -10 10 -10 4 0 -5 5 -15 12 -22
9 -9 9 -12 -1 -12 -11 0 -11 -3 0 -17 10 -11 10 -14 2 -9 -7 4 -13 2 -13 -3 0
-6 5 -11 11 -11 8 0 8 -4 0 -13 -8 -10 -7 -17 2 -27 8 -9 9 -11 0 -6 -17 9
-10 -43 8 -56 11 -8 10 -9 -3 -4 -10 3 -18 1 -18 -4 0 -6 5 -10 11 -10 6 0 7
-5 2 -12 -11 -19 -13 -39 -2 -32 5 3 9 0 9 -5 0 -6 -5 -11 -11 -11 -8 0 -7 -6
2 -17 8 -9 9 -14 3 -10 -7 4 -10 -10 -10 -39 1 -24 5 -44 10 -44 5 0 3 -7 -4
-15 -9 -10 -9 -15 -1 -15 6 0 11 -5 11 -11 0 -5 -4 -8 -8 -5 -11 7 -9 -55 2
-73 6 -9 5 -12 -2 -7 -6 3 -14 2 -17 -4 -4 -6 -3 -10 2 -9 20 3 25 -2 13 -16
-9 -10 -9 -15 -1 -15 6 0 11 -5 11 -11 0 -5 -4 -8 -9 -4 -5 3 -13 1 -16 -5 -4
-6 -3 -10 2 -9 20 3 25 -2 13 -16 -9 -10 -9 -15 -1 -15 6 0 11 -5 11 -11 0 -5
-4 -8 -9 -4 -5 3 -13 1 -16 -5 -4 -6 -3 -9 2 -8 7 3 15 -7 12 -14 -5 -14 -4
-56 2 -53 9 6 6 -15 -4 -32 -5 -7 -4 -13 1 -13 5 0 9 -13 8 -30 0 -16 -5 -30
-11 -30 -5 0 -3 -5 5 -10 8 -5 10 -10 5 -10 -6 0 -11 -13 -10 -30 0 -16 3 -30
7 -30 5 0 8 -5 8 -11 0 -5 -4 -8 -9 -4 -5 3 -13 1 -16 -5 -4 -6 -1 -9 5 -8 7
2 14 -5 15 -15 2 -9 -1 -15 -6 -11 -17 10 -9 -19 9 -33 9 -8 12 -12 6 -9 -7 3
-14 -1 -18 -9 -3 -8 -1 -15 4 -15 6 0 10 -5 10 -11 0 -5 -4 -7 -10 -4 -5 3
-10 1 -10 -4 0 -6 5 -11 11 -11 8 0 7 -6 -2 -17 -11 -13 -11 -17 -1 -21 10 -3
10 -7 1 -18 -9 -11 -8 -14 2 -14 8 0 5 -6 -7 -15 -19 -15 -19 -15 1 -8 18 6
19 5 5 -12 -12 -14 -12 -19 -2 -23 10 -3 10 -7 1 -18 -9 -11 -9 -14 0 -14 7 0
9 -6 4 -17 -12 -28 -9 -63 7 -74 13 -9 13 -10 0 -6 -10 3 -16 -2 -17 -14 -1
-10 4 -19 10 -19 8 0 8 -3 2 -8 -15 -11 -12 -65 5 -80 13 -10 13 -11 -1 -6
-10 3 -20 0 -24 -6 -3 -6 -3 -10 2 -9 22 4 24 -3 8 -27 -9 -15 -13 -24 -7 -20
5 3 15 -1 22 -9 11 -13 10 -14 -3 -9 -15 5 -16 -12 -4 -55 0 -3 -5 -17 -13
-31 -12 -22 -11 -23 1 -13 13 10 15 8 15 -12 0 -19 -3 -22 -13 -13 -18 15 -16
3 2 -16 14 -14 11 -51 -4 -41 -4 2 -8 -2 -8 -10 0 -11 5 -12 21 -3 21 11 21
11 2 -11 -14 -15 -15 -21 -6 -21 9 0 7 -5 -5 -13 -12 -10 -15 -16 -6 -21 8 -5
8 -13 -1 -29 -10 -20 -10 -21 5 -8 10 8 17 9 17 3 0 -6 -5 -14 -11 -18 -8 -4
-7 -9 2 -15 9 -6 10 -9 2 -9 -6 0 -11 -9 -10 -19 0 -11 4 -18 8 -16 8 6 5 -42
-4 -51 -12 -12 -8 -26 6 -18 8 5 8 2 -2 -9 -9 -11 -10 -17 -2 -17 6 0 11 -5
11 -11 0 -5 -4 -8 -9 -5 -12 8 -41 -4 -41 -16 0 -6 6 -6 14 1 11 9 16 9 22 -1
4 -7 4 -10 -1 -6 -4 4 -14 3 -21 -3 -10 -9 -15 -7 -20 4 -3 9 -13 18 -21 21
-12 5 -13 3 -5 -7 8 -10 6 -13 -9 -13 -10 0 -19 3 -19 6 0 3 -9 6 -19 6 -15 0
-17 -3 -9 -13 8 -10 7 -12 -6 -7 -9 3 -16 11 -16 17 0 6 -3 7 -6 4 -4 -3 -15
-2 -25 4 -15 8 -17 6 -12 -8 3 -10 3 -15 -2 -11 -4 4 -14 3 -22 -4 -10 -8 -12
-8 -8 4 4 9 0 15 -10 15 -8 0 -15 -4 -15 -9 0 -4 -7 -8 -15 -8 -8 0 -15 5 -15
10 0 7 -6 7 -20 0 -19 -10 -24 -7 -21 13 1 4 -8 2 -18 -5 -15 -9 -23 -9 -37 3
-11 8 -15 9 -10 2 5 -9 -1 -12 -23 -9 -17 2 -31 -1 -31 -5 0 -5 5 -9 12 -9 6
0 8 -3 4 -7 -4 -5 -13 -1 -19 7 -12 15 -80 23 -71 8 3 -4 0 -8 -5 -8 -6 0 -11
6 -11 13 0 8 -4 7 -10 -3 -8 -12 -10 -12 -10 -1 0 11 -3 11 -15 1 -8 -7 -15
-9 -15 -4 0 5 -13 9 -29 9 -16 1 -28 -2 -25 -6 2 -4 -1 -11 -7 -15 -8 -4 -9
-3 -5 4 3 6 -2 16 -13 22 -18 9 -20 8 -14 -7 3 -10 3 -15 -2 -11 -4 4 -14 3
-22 -4 -10 -8 -12 -8 -8 4 4 9 0 15 -10 15 -8 0 -15 -4 -15 -9 0 -4 -7 -8 -15
-8 -8 0 -15 4 -15 8 0 5 -7 9 -15 9 -8 0 -12 -4 -9 -9 3 -4 0 -8 -5 -8 -6 0
-11 5 -11 11 0 8 -5 8 -15 -1 -8 -7 -15 -8 -15 -3 0 5 -13 10 -30 10 -18 0
-27 -4 -23 -11 4 -6 -1 -5 -10 3 -10 7 -17 9 -17 3 0 -14 -30 -9 -39 7 -6 10
-10 9 -14 -4 -5 -10 -3 -14 5 -9 7 5 8 3 4 -5 -5 -7 -14 -10 -22 -7 -7 3 -16
1 -19 -5 -4 -5 -1 -8 6 -7 7 2 14 -7 15 -18 0 -12 4 -26 8 -33 5 -7 1 -9 -8
-5 -21 8 -20 -6 2 -22 15 -12 14 -13 -13 -9 -16 2 -24 2 -17 -1 6 -3 10 -10 7
-14 -3 -5 4 -7 15 -5 11 2 18 0 15 -6 -4 -5 -13 -9 -21 -9 -8 0 -14 -4 -14
-10 0 -5 8 -6 17 -3 15 6 15 5 0 -17 -20 -28 -7 -62 21 -54 16 5 16 5 -1 -6
-9 -6 -14 -16 -11 -22 4 -7 2 -8 -5 -4 -6 4 -9 12 -6 17 3 5 -1 6 -10 3 -13
-5 -13 -9 5 -24 21 -18 28 -36 9 -24 -7 4 -10 1 -7 -7 3 -8 1 -23 -4 -34 -7
-16 -5 -16 11 4 12 13 21 18 21 13 0 -6 -5 -14 -10 -17 -6 -4 -8 -11 -5 -16 4
-5 1 -9 -4 -9 -6 0 -11 -7 -11 -15 0 -8 5 -15 11 -15 6 0 3 -7 -5 -16 -20 -19
-21 -31 -2 -15 10 8 16 9 21 2 3 -6 -5 -16 -19 -23 -29 -13 -33 -23 -12 -31
10 -4 13 -1 9 9 -3 7 -1 14 4 14 5 0 9 -9 10 -20 2 -18 -3 -22 -23 -19 -4 0
-11 -5 -15 -13 -5 -8 -9 -9 -9 -2 0 7 -7 15 -16 18 -11 4 -15 2 -11 -7 3 -7
-3 -13 -14 -13 -14 0 -15 3 -7 13 6 8 8 16 4 20 -3 3 -6 1 -6 -5 0 -12 -87
-11 -107 1 -8 5 -13 3 -13 -4 0 -7 -3 -9 -7 -6 -3 4 -15 -1 -26 -10 -11 -10
-17 -12 -13 -5 4 6 4 12 -1 13 -4 0 -18 2 -31 3 -17 2 -21 -1 -17 -13 5 -13 4
-13 -12 0 -10 8 -29 14 -43 13 -14 -1 -30 2 -37 8 -7 6 -14 5 -18 -2 -5 -8
-11 -8 -21 1 -11 9 -14 9 -14 -1 0 -7 -8 -10 -20 -7 -20 5 -20 -3 -20 -1965 0
-1317 3 -1967 10 -1963 5 3 10 2 10 -4 0 -5 -6 -12 -12 -15 -7 -3 -2 -3 11 0
17 5 21 3 16 -6 -6 -9 -4 -11 6 -4 8 4 25 9 37 10 13 0 28 7 33 15 7 12 9 12
10 -1 1 -8 1 -18 0 -22 0 -5 4 -8 10 -8 6 0 9 7 5 15 -3 8 0 14 7 12 7 -1 11
4 9 11 -1 8 2 11 8 7 6 -4 8 -15 5 -26 -4 -11 -2 -19 5 -19 6 0 8 5 4 12 -5 7
-2 9 9 5 9 -3 17 -2 19 4 2 5 13 11 26 14 13 2 20 0 17 -6 -4 -5 -10 -7 -15
-4 -4 3 -11 -2 -14 -10 -5 -13 -2 -14 15 -4 17 9 24 8 31 -2 6 -10 7 -7 3 9
-4 13 -2 22 4 22 10 0 15 -14 12 -33 -1 -5 3 -6 8 -3 5 4 8 15 6 26 -2 12 0
18 6 15 5 -4 7 -11 4 -16 -4 -5 -1 -9 5 -9 6 0 8 -4 5 -10 -3 -6 1 -7 9 -4 9
3 16 10 16 16 0 5 -4 6 -10 3 -5 -3 -10 -2 -10 3 0 13 28 23 35 12 3 -4 2 -16
-1 -27 -4 -13 -3 -14 4 -5 5 8 13 13 18 12 4 -1 11 7 15 17 7 17 8 17 8 1 1
-10 6 -18 12 -18 5 0 7 5 3 12 -4 7 -3 8 5 4 6 -4 9 -11 6 -16 -3 -5 0 -12 6
-16 7 -4 10 -3 7 2 -3 5 0 15 8 22 9 8 14 9 14 2 0 -7 8 -9 21 -5 19 6 20 5 8
-8 -11 -12 -17 -12 -29 -3 -13 9 -13 9 -1 -6 7 -10 17 -16 21 -13 5 3 11 1 15
-5 3 -5 -1 -10 -9 -10 -8 0 -18 -5 -22 -11 -4 -8 1 -9 17 -4 20 6 22 5 12 -6
-17 -17 -17 -32 0 -23 6 4 9 4 5 -1 -4 -4 -1 -13 8 -19 13 -10 13 -14 -7 -31
-13 -12 -19 -14 -14 -5 8 13 7 13 -8 1 -18 -15 -23 -26 -7 -16 6 3 10 1 10 -6
0 -8 5 -7 18 2 15 12 16 12 5 -2 -7 -9 -9 -20 -5 -24 4 -5 1 -5 -5 -1 -18 10
-16 -2 2 -20 8 -9 15 -20 15 -27 0 -6 -6 -3 -13 8 -11 14 -16 15 -22 5 -5 -9
-4 -11 3 -6 7 4 12 1 12 -9 0 -10 -5 -13 -12 -9 -6 4 -8 3 -4 -4 3 -5 0 -13
-6 -16 -7 -3 -4 -4 7 -3 17 2 20 -4 20 -38 0 -22 4 -43 10 -47 5 -4 -1 -8 -14
-8 -20 0 -22 -3 -13 -12 15 -15 16 -42 0 -32 -7 4 -8 3 -4 -4 4 -7 1 -12 -6
-12 -8 0 -9 -3 -3 -8 15 -11 19 -46 4 -36 -8 4 -10 3 -5 -5 6 -9 11 -9 22 0
10 8 14 8 14 0 0 -14 13237 -16 13260 -1 13 9 13 10 0 11 -8 1 -22 0 -30 -1
-12 -1 -11 2 3 12 18 13 34 63 16 53 -5 -4 -7 -10 -5 -14 3 -4 0 -13 -5 -21
-7 -11 -8 -6 -4 15 2 17 -1 32 -8 37 -9 6 -9 8 1 8 9 0 10 5 3 19 -8 14 -7 22
4 31 12 10 13 16 3 28 -11 13 -11 14 2 7 13 -7 13 -6 2 7 -10 13 -10 17 1 21
8 3 13 16 12 29 -1 12 3 30 9 38 9 13 9 13 -6 2 -9 -7 -15 -23 -14 -36 2 -13
-3 -23 -10 -23 -9 0 -10 5 -4 17 6 11 5 22 -3 30 -8 9 -8 11 -1 7 7 -4 15 0
18 9 3 8 2 12 -3 9 -5 -3 -12 -1 -15 4 -4 5 -1 13 5 17 8 4 7 9 -2 16 -11 8
-11 9 1 5 8 -2 14 -10 13 -16 -2 -6 2 -11 7 -11 16 0 12 18 -10 40 -11 11 -15
20 -9 20 7 0 9 9 6 21 -4 15 -2 19 8 15 15 -6 13 20 -5 53 -6 12 -9 21 -8 22
21 7 90 4 95 -4 3 -5 1 -7 -5 -3 -6 3 -13 2 -17 -4 -3 -5 -11 -10 -16 -10 -6
0 -7 6 -3 12 5 8 0 7 -11 -2 -15 -12 -17 -12 -10 -1 6 10 4 12 -4 7 -7 -5 -10
-11 -6 -14 10 -11 39 -11 51 -1 8 7 14 6 19 -1 4 -6 12 -7 24 0 12 6 22 5 31
-3 10 -9 11 -9 6 1 -4 7 -1 15 8 18 9 3 13 11 9 17 -4 6 -1 7 8 2 7 -5 27 -10
44 -11 46 -2 48 -3 41 -19 -4 -12 -2 -13 13 -6 12 7 22 6 31 -2 10 -9 11 -9 6
1 -4 7 -1 15 8 18 9 3 13 10 10 15 -3 5 2 6 10 3 18 -7 22 -25 5 -21 -6 1 -14
-5 -16 -13 -4 -12 -3 -12 5 -2 5 8 12 13 16 13 19 -3 27 0 22 8 -5 7 10 8 48
2 4 0 5 -9 2 -18 -4 -11 1 -9 14 7 l21 25 -5 -25 c-3 -14 -3 -20 0 -13 3 7 11
11 17 9 7 -1 9 -1 5 1 -14 8 -8 25 7 20 16 -7 29 6 18 17 -10 10 -13 37 -3 31
4 -3 10 2 13 10 4 8 1 12 -6 9 -7 -2 -13 4 -14 16 -1 11 3 20 8 20 6 0 7 -5 3
-12 -5 -7 -3 -8 5 -3 9 5 9 11 3 17 -6 6 -8 17 -5 26 5 11 3 13 -6 7 -7 -4 -5
5 5 21 17 26 17 28 1 15 -9 -7 -17 -10 -17 -7 0 4 8 19 17 34 14 21 14 24 3
15 -13 -10 -16 -5 -16 38 0 27 3 44 7 37 4 -7 5 -17 2 -23 -4 -5 -2 -7 2 -2
12 10 13 57 1 50 -5 -4 -7 1 -3 10 4 10 1 17 -6 18 -7 0 -3 4 8 9 l20 9 -20 0
c-17 1 -17 3 -5 11 13 8 13 10 1 10 -11 0 -10 4 5 16 10 8 13 12 5 8 -10 -5
-11 -1 -6 16 4 13 3 20 -2 17 -5 -4 -10 1 -10 9 0 8 6 13 13 10 8 -3 16 -1 20
5 4 7 10 6 19 -1 10 -8 13 -6 11 7 -1 14 6 18 32 16 22 -1 30 2 25 10 -8 13
28 -12 39 -28 5 -6 8 -6 8 1 0 7 7 15 16 18 14 5 15 4 5 -8 -10 -12 -9 -15 8
-13 11 0 18 4 16 7 -2 3 1 12 7 20 8 13 9 13 5 -1 -3 -9 -1 -22 4 -30 7 -11 9
-9 9 8 0 12 5 25 11 29 7 4 9 0 5 -14 -6 -17 -3 -19 15 -15 17 5 20 3 14 -7
-5 -9 -4 -11 4 -6 6 4 9 11 7 15 -3 4 0 13 6 21 8 12 9 12 4 -2 -3 -10 -1 -20
4 -23 6 -4 10 1 10 9 0 8 5 18 11 22 7 4 9 0 5 -13 -5 -15 -1 -19 19 -19 14 0
25 4 25 9 0 5 -8 6 -17 2 -13 -4 -15 -3 -7 5 13 14 46 2 37 -14 -3 -6 3 -3 14
7 11 9 23 14 26 10 4 -3 7 0 7 7 0 9 5 7 16 -6 14 -17 15 -17 10 -1 -3 11 -2
16 4 12 6 -3 10 -14 11 -23 0 -10 5 -6 11 11 5 15 14 24 20 21 7 -4 8 -2 4 4
-4 7 -1 12 6 12 9 0 10 3 2 8 -6 4 -10 15 -8 25 2 14 -2 16 -19 12 -12 -4 -17
-3 -12 2 6 4 10 15 10 23 0 8 8 14 17 14 10 -1 14 4 11 12 -3 8 -9 11 -14 8
-5 -3 -9 -1 -9 5 0 5 6 12 13 14 10 4 10 6 0 6 -7 1 -13 6 -13 12 0 5 6 7 13
3 6 -4 -1 8 -18 27 -16 18 -23 28 -13 21 9 -7 18 -9 20 -5 3 4 3 3 2 -4 -2 -6
4 -14 11 -17 11 -4 12 0 5 18 -5 13 -6 27 -2 31 4 4 -4 4 -18 1 -14 -4 -20 -4
-14 1 6 4 10 20 8 36 -1 15 2 27 7 27 6 0 8 -4 5 -9 -3 -5 0 -11 7 -14 8 -3
14 1 14 9 0 8 -4 14 -9 14 -5 0 -6 11 -4 25 4 23 2 25 -16 19 -14 -4 -18 -2
-14 5 4 6 14 11 23 11 11 0 9 5 -8 21 -13 11 -19 18 -14 15 6 -2 17 4 24 16 7
11 8 17 2 13 -6 -3 -11 -3 -12 2 0 4 -2 16 -4 26 -2 9 1 15 6 11 5 -3 7 -9 5
-13 -3 -4 1 -8 8 -8 9 0 12 7 8 16 -5 14 -3 14 10 3 13 -10 18 -10 24 -1 5 8
3 10 -7 4 -8 -5 -11 -4 -6 1 10 10 87 13 81 2 -8 -13 11 -9 25 4 11 10 13 10
7 1 -4 -7 -3 -13 3 -13 5 0 12 6 14 13 4 9 6 8 6 -2 1 -11 6 -10 22 5 11 10
20 14 19 9 -2 -6 -2 -17 -1 -25 1 -12 4 -12 12 2 11 20 29 24 29 7 0 -5 -5 -7
-12 -3 -7 5 -8 3 -4 -5 6 -9 13 -8 29 6 11 10 17 13 14 7 -4 -7 3 -11 18 -11
14 0 25 5 25 11 0 6 4 5 9 -3 6 -9 11 -10 15 -2 11 17 26 13 26 -6 0 -15 2
-15 9 -4 5 8 19 16 32 18 19 3 20 1 8 -13 -13 -16 -12 -16 7 -6 12 6 25 8 29
4 5 -4 5 -1 1 6 -6 9 -1 11 18 8 15 -3 24 -1 21 5 -4 5 -10 7 -15 4 -5 -3 -12
-1 -15 5 -4 6 -3 10 2 9 19 -3 31 2 37 17 5 14 4 15 -9 4 -9 -8 -15 -9 -15 -2
0 6 7 15 17 20 14 9 14 10 -4 16 -12 4 -24 14 -27 23 -6 14 -4 14 10 2 16 -13
16 -12 5 9 -6 12 -9 22 -5 22 3 0 1 6 -5 14 -8 10 -9 16 -1 21 6 3 7 11 4 17
-5 8 -1 9 10 5 10 -4 15 -3 11 3 -3 6 -1 10 5 10 6 0 8 5 4 11 -3 6 -9 7 -13
3 -10 -15 -28 -14 -28 1 0 8 4 12 9 9 4 -3 16 0 25 6 17 11 17 11 0 6 -12 -4
-17 -2 -14 6 2 7 10 12 16 10 7 -1 10 2 6 7 -3 6 -13 7 -22 4 -10 -4 -14 -2
-10 4 4 6 1 14 -5 17 -7 3 -2 3 11 0 16 -4 21 -3 17 5 -4 6 -2 11 3 11 6 0 11
4 11 8 0 5 -7 9 -15 9 -8 0 -12 -4 -9 -9 3 -4 1 -8 -4 -8 -5 0 -8 15 -8 34 1
19 4 32 9 29 4 -2 5 -8 2 -13 -3 -5 -1 -11 4 -14 5 -4 7 7 4 25 -3 24 -2 29 9
23 15 -9 -9 25 -27 38 -6 5 -5 8 3 8 6 0 12 8 12 18 0 10 -6 24 -12 32 -11 12
-10 12 5 1 15 -12 21 -9 18 11 0 4 6 5 14 2 14 -6 19 -18 16 -37 -1 -5 3 -6 8
-2 6 3 8 12 5 19 -3 8 0 17 7 22 7 4 10 3 6 -3 -4 -6 5 -15 20 -22 24 -11 25
-10 13 4 -7 8 -10 18 -6 22 3 3 6 1 6 -5 0 -7 5 -12 11 -12 5 0 7 6 3 13 -6 9
-4 9 7 -1 15 -14 33 -16 25 -3 -7 10 20 9 30 -2 12 -12 26 -8 18 5 -4 7 -3 8
5 4 6 -4 9 -11 7 -15 -3 -4 1 -8 9 -8 8 0 13 5 12 10 -1 5 6 11 16 12 9 2 14
-1 11 -6 -3 -6 5 -8 20 -5 15 3 32 -2 41 -10 8 -9 15 -12 15 -7 0 5 -5 14 -10
19 -7 7 -6 11 4 11 8 0 13 -4 10 -8 -5 -9 47 -6 63 4 6 4 14 3 18 -3 3 -5 11
-10 16 -10 6 0 7 5 3 12 -4 7 -3 8 5 4 6 -4 9 -11 6 -16 -3 -4 3 -7 12 -6 17
3 18 103 21 1974 1 1386 -1 1972 -9 1972 -5 0 -7 -4 -4 -10 4 -6 -1 -7 -11 -3
-13 5 -15 3 -9 -8 5 -8 0 -6 -12 4 -14 12 -23 15 -28 8 -3 -6 -1 -11 6 -11 7
0 9 -3 6 -6 -4 -4 -13 -1 -21 5 -11 10 -17 8 -26 -6 -11 -17 -11 -17 -6 1 5
13 2 17 -9 12 -8 -3 -15 -1 -15 3 0 5 -7 11 -15 15 -13 5 -14 2 -4 -17 9 -18
9 -20 -2 -9 -7 6 -20 12 -28 12 -14 0 -14 -1 -1 -10 9 -6 10 -10 3 -10 -19 0
-26 20 -9 26 9 3 13 11 10 16 -4 5 -14 -2 -24 -17 -14 -21 -18 -23 -23 -11 -4
9 -2 16 3 16 6 0 10 5 10 11 0 8 -5 8 -15 -1 -8 -7 -13 -16 -10 -20 3 -5 1
-12 -5 -15 -6 -4 -10 -3 -9 2 4 21 -3 24 -18 6 -10 -10 -15 -14 -10 -9 4 6 7
16 7 24 0 10 -5 9 -17 -5 -10 -10 -14 -13 -9 -6 5 8 4 13 -3 13 -21 0 -26 2
-41 13 -13 10 -13 10 -1 -5 7 -10 17 -15 22 -12 16 9 10 -3 -8 -17 -14 -12
-15 -12 -9 0 7 10 3 12 -15 6 -13 -4 -26 -7 -29 -7 -22 0 -30 4 -30 16 0 8 -5
18 -11 22 -8 4 -9 -1 -5 -17 l7 -24 -22 25 c-20 24 -21 24 -15 3 6 -18 3 -22
-13 -20 -11 1 -18 3 -16 6 3 2 -1 11 -8 20 -11 14 -10 14 6 2 15 -12 17 -11
17 2 0 8 6 18 13 21 6 3 3 4 -9 1 -14 -4 -21 0 -21 9 0 9 4 13 9 10 7 -5 10 3
7 22 0 4 5 11 13 16 8 6 5 7 -12 2 -22 -6 -23 -5 -11 10 11 13 11 16 1 16 -8
0 -10 3 -7 6 3 4 2 15 -4 25 -7 15 -6 17 5 13 9 -3 14 -11 13 -16 -1 -6 5 -13
13 -15 9 -3 11 -1 5 4 -6 4 -10 19 -10 33 1 14 -3 31 -8 38 -7 9 -5 11 9 7 14
-4 13 -2 -3 6 -12 6 -24 18 -28 27 -4 12 0 11 22 -3 22 -14 25 -15 15 -3 -7 9
-9 18 -5 20 4 3 2 3 -4 2 -7 -2 -12 0 -11 4 1 4 -3 16 -9 28 -10 16 -9 21 2
21 7 0 12 -5 11 -11 -2 -6 -1 -8 1 -3 3 4 10 4 16 0 8 -4 7 -1 -1 9 -10 13
-10 17 0 22 7 3 2 3 -12 -1 -21 -5 -23 -4 -13 8 8 10 9 20 3 29 -13 20 -12 30
1 30 5 0 8 -4 4 -9 -3 -5 -2 -12 2 -14 5 -3 8 19 8 48 0 29 -2 53 -5 53 -3 0
-7 1 -10 2 -3 1 -24 3 -47 5 -29 1 -40 -1 -36 -9 4 -6 -1 -5 -10 3 -13 10 -17
10 -17 1 0 -10 -3 -10 -15 0 -12 10 -15 10 -16 -1 0 -8 -4 -5 -9 6 -5 11 -9
15 -9 9 -1 -14 -91 -14 -91 0 0 5 -10 -2 -22 -15 -14 -17 -19 -19 -15 -6 7 20
3 21 -24 7 -13 -7 -19 -7 -19 0 0 5 -4 10 -10 10 -5 0 -7 -8 -4 -17 3 -10 -2
-7 -10 7 -11 19 -15 21 -16 8 0 -9 -5 -20 -10 -23 -6 -4 -9 -1 -8 6 3 13 -57
17 -85 6 -12 -4 -17 -1 -18 11 0 13 -3 11 -9 -5 -5 -13 -12 -23 -15 -23 -4 0
-4 4 -1 9 3 5 -1 14 -9 21 -13 11 -14 10 -10 -2 6 -16 -20 -18 -43 -4 -7 4
-12 2 -12 -5 0 -8 -4 -8 -15 1 -12 10 -15 10 -16 -1 0 -8 -4 -5 -9 6 -5 11 -9
15 -9 8 -1 -7 -21 -10 -62 -9 -45 2 -62 -1 -66 -11 -4 -11 -8 -12 -13 -3 -9
15 -178 20 -184 5 -3 -5 -5 4 -5 20 -1 23 -4 27 -11 15 -5 -8 -10 -11 -10 -6
0 5 8 18 17 28 13 14 13 17 2 13 -10 -4 -14 3 -15 27 -1 18 1 27 3 21 8 -21
22 -15 16 7 -3 11 -9 18 -12 15 -4 -2 -8 2 -8 10 0 8 4 12 9 9 4 -3 8 2 8 11
0 10 -5 13 -12 9 -7 -4 -5 2 6 14 16 19 17 22 3 27 -15 6 -17 28 -4 41 10 10
9 26 -1 20 -5 -3 -9 2 -9 10 0 9 6 13 15 9 12 -4 12 -2 4 8 -7 8 -9 17 -5 20
3 4 1 7 -6 7 -7 0 -9 5 -6 10 4 6 10 8 14 6 3 -3 7 4 7 14 0 14 -3 16 -13 8
-18 -15 -16 -2 4 30 15 22 15 25 2 15 -14 -11 -16 -7 -14 31 0 24 7 52 15 62
13 15 13 16 1 9 -11 -6 -13 -4 -8 8 4 10 1 17 -6 18 -7 0 -3 4 8 9 l20 9 -20
0 c-17 1 -17 3 -5 11 11 7 11 10 2 10 -7 0 -10 5 -7 10 4 6 11 7 17 4 7 -4 8
-2 4 5 -4 6 -11 9 -15 7 -10 -6 -8 40 2 50 12 12 8 26 -5 18 -9 -5 -9 -2 1 9
9 12 10 17 2 17 -7 0 -9 5 -6 10 4 6 11 7 17 4 7 -4 8 -2 4 5 -4 6 -11 9 -16
6 -10 -6 -7 21 3 31 11 12 8 26 -4 18 -6 -3 -3 6 7 22 17 26 17 28 1 15 -19
-15 -22 -9 -7 20 8 13 7 19 0 19 -6 0 -8 5 -5 10 4 6 12 8 18 4 7 -3 3 2 -7
10 -11 9 -14 16 -8 16 7 0 12 8 12 18 0 14 -2 15 -10 2 -5 -8 -10 -10 -10 -4
0 5 5 15 12 22 9 9 9 12 -2 12 -10 0 -8 4 5 14 18 13 18 14 0 23 -12 7 -14 13
-6 17 6 4 11 12 11 17 0 6 -5 7 -11 3 -6 -3 -3 6 7 22 18 28 18 29 -1 14 -20
-16 -20 -18 2 37 5 12 3 14 -8 8 -12 -8 -12 -6 0 8 11 14 11 17 0 17 -8 0 -5
6 7 15 14 11 15 14 3 9 -10 -3 -20 0 -25 7 -4 8 -3 10 4 5 7 -4 12 -2 12 4 0
6 6 8 13 5 6 -4 4 0 -5 8 -19 15 -25 32 -8 22 6 -3 10 1 10 10 0 10 -5 13 -12
9 -7 -4 -5 2 6 14 17 20 17 22 2 28 -9 3 -16 10 -16 16 0 5 4 6 10 3 6 -4 7 1
3 11 -4 12 -3 15 5 10 8 -5 10 -2 6 8 -3 9 -11 13 -18 9 -6 -4 -5 1 3 10 11
14 11 17 0 18 -8 0 -5 4 6 9 l20 9 -20 0 c-17 1 -17 3 -5 11 10 6 11 10 3 10
-7 0 -13 5 -13 11 0 5 4 8 9 5 5 -3 11 1 14 9 4 10 1 12 -10 8 -13 -5 -12 -1
3 23 13 21 14 26 3 17 -12 -10 -15 -8 -16 8 -1 11 2 17 8 14 5 -4 9 1 9 9 0 8
-5 18 -11 21 -7 5 -5 13 6 25 12 14 13 20 4 26 -8 4 -10 3 -5 -4 4 -7 2 -12
-3 -12 -14 0 -14 13 1 28 9 9 9 12 -2 12 -10 0 -8 4 5 14 18 13 18 14 0 23
-12 7 -14 13 -6 17 6 4 11 12 11 17 0 6 -5 7 -11 3 -6 -3 -3 6 7 22 18 28 18
29 -1 14 -20 -16 -20 -18 2 37 5 12 3 14 -8 8 -12 -8 -12 -6 0 8 11 14 11 17
0 17 -8 0 -5 6 7 15 14 11 15 14 3 9 -10 -3 -20 0 -25 7 -4 8 -3 10 4 5 7 -4
12 -2 12 4 0 6 6 8 13 5 6 -4 4 0 -5 8 -19 15 -25 32 -8 22 6 -3 10 1 10 10 0
10 -5 13 -12 9 -7 -4 -5 2 5 13 18 21 18 22 0 32 -17 11 -17 12 1 26 17 13 18
15 3 15 -20 0 -22 11 -5 28 9 9 9 12 -2 12 -10 0 -8 4 5 14 18 13 18 14 0 23
-12 7 -14 13 -6 17 6 4 11 12 11 17 0 6 -5 7 -11 3 -6 -3 -3 6 7 22 17 26 17
28 1 15 -19 -15 -22 -9 -7 20 8 13 7 19 0 19 -6 0 -8 5 -5 10 4 6 12 8 18 4 7
-3 3 2 -7 10 -11 9 -14 16 -8 16 7 0 12 8 12 18 0 14 -2 15 -10 2 -5 -8 -10
-10 -10 -4 0 5 5 15 12 22 9 9 9 12 -2 12 -10 0 -8 4 5 14 18 13 18 14 0 23
-12 7 -14 13 -6 17 6 4 11 12 11 17 0 6 -5 7 -11 3 -6 -3 -3 6 7 22 18 28 18
29 -1 14 -20 -16 -20 -18 2 37 5 12 3 14 -8 8 -12 -8 -12 -6 0 8 11 14 11 17
0 17 -8 0 -5 6 7 15 14 11 15 14 3 9 -10 -3 -20 0 -25 7 -4 8 -3 10 4 5 7 -4
12 -2 12 4 0 6 6 8 13 5 6 -4 4 0 -5 8 -19 15 -25 32 -8 22 6 -3 10 1 10 10 0
10 -5 13 -12 9 -7 -4 -5 2 6 14 17 20 17 22 2 28 -9 3 -16 10 -16 16 0 5 4 6
10 3 6 -4 7 1 3 11 -4 12 -3 15 5 10 8 -5 10 -2 6 8 -3 9 -11 13 -18 9 -6 -4
-5 1 3 10 11 14 11 17 0 18 -8 0 -5 4 6 9 l20 9 -20 0 c-17 1 -17 3 -5 11 10
6 11 10 3 10 -7 0 -13 5 -13 11 0 5 4 8 9 5 5 -3 11 1 14 9 4 10 1 12 -10 8
-13 -5 -12 -1 3 23 13 21 14 26 3 17 -12 -10 -15 -8 -16 8 -1 11 2 17 8 14 5
-4 9 1 9 9 0 8 -5 18 -11 21 -7 5 -5 13 6 25 12 14 13 20 4 26 -8 4 -10 3 -5
-4 4 -7 2 -12 -3 -12 -14 0 -14 13 1 28 9 9 9 12 -2 12 -10 0 -8 4 5 14 18 13
18 14 0 23 -12 7 -14 13 -6 17 6 4 11 12 11 17 0 6 -5 7 -11 3 -6 -3 -3 6 7
22 18 28 18 29 -1 14 -20 -16 -20 -18 2 37 5 12 3 14 -8 8 -12 -8 -12 -6 0 8
11 14 11 17 0 17 -8 0 -5 6 7 15 14 11 15 14 3 9 -10 -3 -20 0 -25 7 -4 8 -3
10 4 5 7 -4 12 -2 12 4 0 6 6 8 13 5 6 -4 4 0 -5 8 -19 15 -25 32 -8 22 6 -3
10 1 10 10 0 10 -5 13 -12 9 -7 -4 -5 2 5 13 18 21 18 22 0 32 -17 11 -17 12
1 26 17 13 18 15 3 15 -20 0 -22 11 -5 28 9 9 9 12 -2 12 -10 0 -8 4 5 14 18
13 18 14 0 23 -12 7 -14 13 -6 17 6 4 11 12 11 17 0 6 -5 7 -11 3 -6 -3 -3 6
7 22 17 26 17 28 1 15 -19 -15 -22 -9 -7 20 8 13 7 19 0 19 -6 0 -8 5 -5 10 4
6 12 8 18 4 7 -3 3 2 -7 10 -11 9 -14 16 -8 16 7 0 12 8 12 18 0 14 -2 15 -10
2 -5 -8 -10 -10 -10 -5 0 6 5 16 12 23 9 9 9 12 -2 12 -10 0 -8 4 5 14 18 13
18 14 0 23 -12 7 -14 13 -6 17 6 4 11 12 11 17 0 6 -5 7 -11 3 -6 -3 -3 6 7
22 18 28 18 29 -1 14 -20 -16 -20 -18 2 37 5 12 3 14 -8 8 -12 -8 -12 -6 0 8
11 14 11 17 0 17 -8 0 -5 6 7 15 14 11 15 14 3 9 -10 -3 -20 0 -25 7 -4 8 -3
10 4 5 7 -4 12 -2 12 4 0 6 6 8 13 5 6 -4 4 0 -5 8 -19 15 -25 32 -8 22 6 -3
10 1 10 10 0 10 -5 13 -12 9 -7 -4 -5 2 6 14 17 20 17 22 2 28 -9 3 -16 10
-16 16 0 5 4 6 10 3 6 -4 7 1 3 11 -4 12 -3 15 5 10 8 -5 10 -2 6 8 -3 9 -11
13 -18 9 -6 -4 -5 1 3 10 11 14 11 17 0 18 -8 0 -5 4 6 9 l20 9 -20 0 c-17 1
-17 3 -5 11 10 6 11 10 3 10 -7 0 -13 5 -13 11 0 5 4 8 9 5 5 -3 11 1 14 9 4
10 1 12 -10 8 -13 -5 -12 -1 3 23 13 21 14 26 3 17 -12 -10 -15 -8 -16 8 -1
11 2 17 8 14 5 -4 9 1 9 9 0 8 -5 18 -11 21 -7 5 -5 13 6 25 12 14 13 20 4 26
-8 4 -10 3 -5 -4 4 -7 2 -12 -3 -12 -14 0 -14 13 1 28 9 9 9 12 -2 12 -10 0
-8 4 5 14 18 13 18 14 0 23 -12 7 -14 13 -6 17 6 4 11 12 11 17 0 6 -5 7 -11
3 -6 -3 -3 6 7 22 18 28 18 29 -1 14 -20 -16 -20 -18 2 37 5 12 3 14 -8 8 -12
-8 -12 -6 0 8 11 14 11 17 0 17 -8 0 -5 6 7 15 14 11 15 14 3 9 -10 -3 -20 0
-25 7 -4 8 -3 10 4 5 7 -4 12 -2 12 4 0 6 6 8 13 5 6 -4 4 0 -5 8 -19 15 -25
32 -8 22 6 -3 10 1 10 10 0 10 -5 13 -12 9 -7 -4 -5 2 5 13 18 21 18 22 0 32
-17 11 -17 12 1 26 17 13 18 15 3 15 -20 0 -22 11 -5 28 9 9 9 12 -2 12 -10 0
-8 4 5 14 18 13 18 14 0 23 -12 7 -14 13 -6 17 6 4 11 12 11 17 0 6 -5 7 -11
3 -6 -3 -3 6 7 22 17 26 17 28 1 15 -19 -15 -22 -9 -7 20 8 13 7 19 0 19 -6 0
-8 5 -5 10 4 6 12 8 18 4 7 -3 3 2 -7 10 -11 9 -14 16 -8 16 7 0 12 8 12 18 0
14 -2 15 -10 2 -5 -8 -10 -10 -10 -5 0 6 5 16 12 23 9 9 9 12 -2 12 -10 0 -8
4 5 14 18 13 18 14 0 23 -12 7 -14 13 -6 17 6 4 11 12 11 17 0 6 -5 7 -11 3
-6 -3 -3 6 7 22 18 28 18 29 -1 14 -20 -16 -20 -18 2 37 5 12 3 14 -8 8 -12
-8 -12 -6 0 8 11 14 11 17 0 17 -8 0 -5 6 7 15 14 11 15 14 3 9 -10 -3 -20 0
-25 7 -4 8 -3 10 4 5 7 -4 12 -2 12 4 0 6 6 8 13 5 6 -4 4 0 -5 8 -19 15 -25
32 -8 22 6 -3 10 1 10 10 0 10 -5 13 -12 9 -7 -4 -5 2 6 14 17 20 17 22 2 28
-9 3 -16 10 -16 16 0 5 4 6 10 3 6 -4 7 1 3 11 -4 12 -3 15 5 10 8 -5 10 -2 6
8 -3 9 -11 13 -18 9 -6 -4 -5 1 3 10 11 14 11 17 0 18 -8 0 -5 4 6 9 l20 9
-20 0 c-17 1 -17 3 -5 11 10 6 11 10 3 10 -7 0 -13 5 -13 11 0 5 4 8 9 5 5 -3
11 1 14 9 4 10 1 12 -10 8 -13 -5 -12 -1 3 23 13 21 14 26 3 17 -12 -10 -15
-8 -16 8 -1 11 2 17 8 14 5 -4 9 1 9 9 0 8 -5 18 -11 21 -7 5 -5 13 6 25 12
14 13 20 4 26 -8 4 -10 3 -5 -4 4 -7 2 -12 -3 -12 -14 0 -14 13 1 28 9 9 9 12
-2 12 -10 0 -8 4 5 14 18 13 18 14 0 23 -12 7 -14 13 -6 17 6 4 11 12 11 17 0
6 -5 7 -11 3 -6 -3 -3 6 7 22 18 28 18 29 -1 14 -20 -16 -20 -18 2 37 5 12 3
14 -8 8 -12 -8 -12 -6 0 8 11 14 11 17 0 17 -8 0 -5 6 7 15 14 11 15 14 3 9
-10 -3 -20 0 -25 7 -4 8 -3 10 4 5 7 -4 12 -2 12 4 0 6 6 8 13 5 6 -4 4 0 -5
8 -19 15 -25 32 -8 22 6 -3 10 1 10 10 0 10 -5 13 -12 9 -7 -4 -5 2 5 13 18
21 18 22 0 32 -17 11 -17 12 1 26 17 13 18 15 3 15 -20 0 -22 11 -5 28 9 9 9
12 -2 12 -10 0 -8 4 5 14 18 13 18 14 0 23 -12 7 -14 13 -6 17 6 4 11 12 11
17 0 6 -5 7 -11 3 -6 -3 -3 6 7 22 17 26 17 28 1 15 -19 -15 -22 -9 -7 20 8
13 7 19 0 19 -6 0 -8 5 -5 10 4 6 12 8 18 4 7 -3 3 2 -7 10 -11 9 -14 16 -8
16 7 0 12 8 12 18 0 14 -2 15 -10 2 -5 -8 -10 -10 -10 -5 0 6 5 16 12 23 9 9
9 12 -2 12 -10 0 -8 4 5 14 18 13 18 14 0 23 -12 7 -14 13 -6 17 6 4 11 12 11
17 0 6 -5 7 -11 3 -6 -3 -3 6 7 22 18 28 18 29 -1 14 -20 -16 -20 -18 2 37 5
12 3 14 -8 8 -12 -8 -12 -6 0 8 11 14 11 17 0 17 -8 0 -5 6 7 15 14 11 15 14
3 9 -10 -3 -20 0 -25 7 -4 8 -3 10 4 5 7 -4 12 -2 12 4 0 6 6 8 13 5 6 -4 4 0
-5 8 -19 15 -25 32 -8 22 6 -3 10 1 10 10 0 10 -5 13 -12 9 -7 -4 -5 2 6 14
17 20 17 22 2 28 -9 3 -16 10 -16 16 0 5 4 6 10 3 6 -4 7 1 3 11 -4 12 -3 15
5 10 8 -5 10 -2 6 8 -3 9 -11 13 -18 9 -6 -4 -5 1 3 10 11 14 11 17 0 18 -8 0
-5 4 6 9 l20 9 -20 0 c-17 1 -17 3 -5 11 10 6 11 10 3 10 -7 0 -13 5 -13 11 0
5 4 8 9 5 5 -3 11 1 14 9 4 10 1 12 -10 8 -13 -5 -12 -1 3 23 13 21 14 26 3
17 -12 -10 -15 -8 -16 8 -1 11 2 17 8 14 5 -4 9 1 9 9 0 8 -5 18 -11 21 -7 5
-5 13 6 25 12 14 13 20 4 26 -8 4 -10 3 -5 -4 4 -7 2 -12 -3 -12 -14 0 -14 13
1 28 9 9 9 12 -2 12 -10 0 -8 4 5 14 18 13 18 14 0 23 -12 7 -14 13 -6 17 6 4
11 12 11 17 0 6 -5 7 -11 3 -6 -3 -3 6 7 22 18 28 18 29 -1 14 -20 -16 -20
-18 2 37 5 12 3 14 -8 8 -12 -8 -12 -6 0 8 11 14 11 17 0 17 -8 0 -5 6 7 15
14 11 15 14 3 9 -10 -3 -20 0 -25 7 -4 8 -3 10 4 5 7 -4 12 -2 12 4 0 6 6 8
13 5 6 -4 4 0 -5 8 -19 15 -25 32 -8 22 6 -3 10 1 10 10 0 10 -5 13 -12 9 -7
-4 -5 2 5 13 18 21 18 22 0 32 -17 11 -17 12 1 26 17 13 18 15 3 15 -20 0 -22
11 -5 28 9 9 9 12 -2 12 -10 0 -8 4 5 14 18 13 18 14 0 23 -12 7 -14 13 -6 17
6 4 11 12 11 17 0 6 -5 7 -11 3 -6 -3 -3 6 7 22 17 26 17 28 1 15 -19 -15 -22
-9 -7 20 8 13 7 19 0 19 -6 0 -8 5 -5 10 4 6 12 8 18 4 7 -3 3 2 -7 10 -11 9
-14 16 -8 16 7 0 12 8 12 18 0 14 -2 15 -10 2 -5 -8 -10 -10 -10 -5 0 6 5 16
12 23 9 9 9 12 -2 12 -10 0 -8 4 5 14 18 13 18 14 0 23 -12 7 -14 13 -6 17 6
4 11 12 11 17 0 6 -5 7 -11 3 -6 -3 -3 6 7 22 18 28 18 29 -1 14 -20 -16 -20
-18 2 37 5 12 3 14 -8 8 -12 -8 -12 -6 0 8 11 14 11 17 0 17 -8 0 -5 6 7 15
14 11 15 14 3 9 -10 -3 -20 0 -25 7 -4 8 -3 10 4 5 7 -4 12 -2 12 4 0 6 6 8
13 5 6 -4 4 0 -5 8 -19 15 -25 32 -8 22 6 -3 10 1 10 10 0 10 -5 13 -12 9 -7
-4 -5 2 6 14 17 20 17 22 2 28 -9 3 -16 10 -16 16 0 5 4 6 10 3 6 -4 7 1 3 11
-4 12 -3 15 5 10 8 -5 10 -2 6 8 -3 9 -11 13 -18 9 -6 -4 -5 1 3 10 11 14 11
17 0 18 -8 0 -5 4 6 9 l20 9 -20 0 c-17 1 -17 3 -5 11 10 6 11 10 3 10 -7 0
-13 5 -13 11 0 5 4 8 9 5 5 -3 11 1 14 9 4 10 1 12 -10 8 -13 -5 -12 -1 3 23
13 21 14 26 3 17 -12 -10 -15 -8 -16 8 -1 11 2 17 8 14 5 -4 9 1 9 9 0 8 -5
18 -11 21 -7 5 -5 13 6 25 12 14 13 20 4 26 -8 4 -10 3 -5 -4 4 -7 2 -12 -3
-12 -14 0 -14 13 1 28 9 9 9 12 -2 12 -10 0 -8 4 5 14 18 13 18 14 0 23 -12 7
-14 13 -6 17 6 4 11 12 11 17 0 6 -5 7 -11 3 -6 -3 -3 6 7 22 18 28 18 29 -1
14 -20 -16 -20 -18 2 37 5 12 3 14 -8 8 -12 -8 -12 -6 0 8 11 14 11 17 0 17
-8 0 -5 6 7 15 14 11 15 14 3 9 -10 -3 -20 0 -25 7 -4 8 -3 10 4 5 7 -4 12 -2
12 4 0 6 6 8 13 5 6 -4 4 0 -5 8 -19 15 -25 32 -8 22 6 -3 10 1 10 10 0 10 -5
13 -12 9 -7 -4 -5 2 5 13 18 21 18 22 0 32 -17 11 -17 12 1 26 17 13 18 15 3
15 -20 0 -22 11 -5 28 9 9 9 12 -3 12 -10 1 -8 4 5 12 18 10 18 12 2 23 -11 8
-13 15 -7 20 6 3 11 11 11 16 0 6 -5 7 -11 3 -6 -3 -3 6 7 22 17 26 17 28 1
15 -19 -15 -22 -9 -7 20 8 13 7 19 0 19 -6 0 -8 5 -5 10 4 6 12 8 18 4 7 -3 3
2 -7 10 -11 9 -14 16 -8 16 7 0 12 5 12 11 0 5 -4 8 -9 4 -5 -3 -13 0 -17 6
-5 8 -3 9 6 4 10 -6 12 -3 8 13 -4 12 -2 25 3 28 5 3 9 10 9 15 0 6 -6 7 -12
3 -10 -6 -10 -4 -2 7 6 8 10 21 9 29 -2 8 -5 27 -8 43 -3 16 -2 25 4 22 5 -4
8 5 7 19 -1 15 -6 26 -11 26 -5 0 -4 7 3 15 10 12 8 14 -9 10 -19 -3 -26 5
-22 28 0 4 -3 7 -9 7 -5 0 -10 -4 -10 -9 0 -4 -10 -8 -22 -8 -40 -1 -49 -3
-44 -11 2 -4 0 -14 -6 -22 -8 -13 -9 -12 -5 2 4 10 -3 23 -20 33 -14 10 -23
13 -21 9 2 -5 -6 -19 -19 -31 -23 -22 -34 -18 -11 5 13 13 10 14 -34 16 -20 1
-24 -1 -17 -10 7 -8 7 -14 0 -18 -11 -7 -34 28 -24 38 3 3 1 6 -6 6 -8 0 -11
-6 -7 -16 5 -13 3 -14 -6 -7 -20 14 -57 8 -73 -13 -13 -16 -14 -17 -9 -1 6 17
-4 22 -35 18 -8 -2 -10 3 -6 11 6 10 5 11 -5 1 -11 -10 -17 -9 -32 4 -11 10
-18 11 -18 5 0 -7 5 -12 11 -12 5 0 8 -4 4 -9 -3 -6 3 -8 15 -6 11 2 22 1 24
-3 2 -4 -8 -8 -22 -8 -18 -1 -34 7 -46 24 -11 14 -14 22 -8 18 7 -4 12 -1 12
8 0 10 -6 13 -17 9 -12 -5 -11 -1 5 15 25 25 29 47 7 39 -8 -4 -17 -1 -21 5
-4 7 -3 8 4 4 7 -4 12 -3 12 3 0 5 -6 12 -12 15 -7 3 -2 3 12 -1 20 -5 23 -3
14 8 -18 22 -27 59 -14 59 6 0 9 -4 5 -9 -3 -5 -1 -12 4 -16 6 -3 8 4 5 17 -8
32 -7 40 2 62 6 16 4 18 -9 13 -9 -3 -19 -1 -23 5 -4 7 -3 8 4 4 7 -4 12 -3
12 3 0 5 -6 12 -12 15 -7 3 -2 3 12 -1 20 -5 23 -3 14 8 -18 22 -27 59 -14 59
6 0 9 -4 5 -9 -3 -5 -1 -12 4 -15 5 -4 8 2 6 11 -2 10 -4 21 -4 25 -1 4 -7 6
-13 4 -7 -1 -10 -1 -5 1 4 3 4 10 1 15 -4 7 -2 8 4 4 7 -4 12 -1 12 8 0 9 -3
15 -7 14 -5 -2 -9 2 -10 7 -2 6 1 10 6 10 5 0 13 4 18 9 4 5 4 7 -2 4 -5 -3
-17 1 -24 10 -13 14 -12 15 8 9 18 -4 20 -3 10 9 -10 12 -722 14 -5159 14
-4764 0 -5149 -1 -5161 -16z m10315 -229 c-4 -8 -11 -12 -16 -9 -6 4 -5 10 3
15 19 12 19 11 13 -6z m0 -160 c-4 -8 -11 -12 -16 -9 -6 4 -5 10 3 15 19 12
19 11 13 -6z m-3 -82 c13 -16 12 -17 -3 -4 -10 7 -18 15 -18 17 0 8 8 3 21
-13z m-10724 -15 c-3 -8 -6 -5 -6 6 -1 11 2 17 5 13 3 -3 4 -12 1 -19z m244
-1 c-10 -9 -11 -8 -5 6 3 10 9 15 12 12 3 -3 0 -11 -7 -18z m74 4 c-3 -6 -11
-11 -16 -11 -5 0 -4 6 3 14 14 16 24 13 13 -3z m10502 -3 c-3 -8 -6 -5 -6 6
-1 11 2 17 5 13 3 -3 4 -12 1 -19z m87 11 c-2 -4 1 -9 8 -12 7 -2 4 -2 -7 0
-11 3 -25 5 -32 5 -20 2 -6 14 16 14 11 0 18 -3 15 -7z m96 7 c0 -3 -4 -8 -10
-11 -5 -3 -10 -1 -10 4 0 6 5 11 10 11 6 0 10 -2 10 -4z m66 -8 c4 -7 4 -10
-1 -6 -4 4 -15 2 -24 -5 -14 -11 -14 -10 -2 6 16 20 18 21 27 5z m59 3 c3 -5
2 -12 -3 -15 -5 -3 -9 1 -9 9 0 17 3 19 12 6z m-10768 -17 c-3 -3 -12 -4 -19
-1 -8 3 -5 6 6 6 11 1 17 -2 13 -5z m-437 -486 c0 -6 -6 -5 -15 2 -12 10 -15
10 -15 0 0 -8 -3 -11 -6 -7 -3 3 -3 10 0 16 8 12 36 3 36 -11z m-488 -120 c-8
-8 -9 -4 -5 13 4 13 8 18 11 10 2 -7 -1 -18 -6 -23z m17 -108 c0 -10 -3 -8 -9
5 -12 27 -12 43 0 25 5 -8 9 -22 9 -30z m-2 -56 c-3 -3 -12 -4 -19 -1 -8 3 -5
6 6 6 11 1 17 -2 13 -5z m-20 -187 c0 -8 -6 -14 -14 -14 -9 0 -10 4 -2 14 6 7
12 13 14 13 1 0 2 -6 2 -13z m-865 -501 c7 4 8 2 4 -5 -9 -13 -26 -5 -25 12 0
9 2 8 6 -1 2 -6 10 -9 15 -6z m48 -9 c0 -7 -4 -6 -10 3 -8 12 -10 12 -10 1 0
-8 -3 -12 -6 -8 -9 9 6 28 17 22 5 -4 9 -12 9 -18z m244 11 c-3 -5 -9 -6 -14
-3 -5 3 -11 1 -15 -5 -4 -6 -11 -8 -16 -4 -15 9 -2 20 25 20 13 0 22 -4 20 -8z
m12470 -7366 c3 -5 -1 -9 -9 -9 -8 0 -12 4 -9 9 3 4 7 8 9 8 2 0 6 -4 9 -8z
m865 -6 c7 -8 8 -17 3 -20 -6 -3 -12 3 -15 14 -6 24 -4 25 12 6z m11 -42 c0
-8 -19 -13 -24 -6 -3 5 1 9 9 9 8 0 15 -2 15 -3z m-3 -239 c0 -8 -4 -12 -9 -9
-5 3 -6 10 -3 15 9 13 12 11 12 -6z m-14349 -1200 c-3 -3 -9 2 -12 12 -6 14
-5 15 5 6 7 -7 10 -15 7 -18z m252 11 c0 -3 -4 -8 -10 -11 -5 -3 -10 -1 -10 4
0 6 5 11 10 11 6 0 10 -2 10 -4z m-617 -190 c4 -10 1 -13 -8 -9 -8 3 -12 9 -9
14 7 12 11 11 17 -5z m-402 -293 c11 -15 11 -16 -1 -6 -11 10 -16 9 -27 -5
-13 -15 -13 -15 -3 6 13 27 14 27 31 5z m210 -16 c-10 -9 -11 -8 -5 6 3 10 9
15 12 12 3 -3 0 -11 -7 -18z m14904 -2516 c3 -5 0 -13 -6 -17 -7 -4 -9 -3 -5
4 3 5 0 13 -6 15 -9 4 -10 6 -1 6 6 1 14 -3 18 -8z m-485 -557 c0 -8 -19 -13
-24 -6 -3 5 1 9 9 9 8 0 15 -2 15 -3z m-3 -291 c0 -9 -4 -10 -14 -2 -7 6 -13
12 -13 14 0 1 6 2 13 2 8 0 14 -6 14 -14z m-447 -36 c0 -2 -8 -11 -18 -20 -15
-14 -19 -15 -19 -2 0 8 4 12 9 9 4 -3 8 0 8 5 0 6 5 11 10 11 6 0 10 -2 10 -3z
m-14182 -499 c-5 -14 -38 -20 -38 -6 0 6 7 8 15 4 8 -3 15 -1 15 4 0 6 3 10 6
10 3 0 4 -5 2 -12z m13779 -10 c-3 -8 -6 -5 -6 6 -1 11 2 17 5 13 3 -3 4 -12
1 -19z m160 0 c-3 -8 -6 -5 -6 6 -1 11 2 17 5 13 3 -3 4 -12 1 -19z m-177 3
c0 -5 -7 -12 -16 -15 -14 -5 -15 -4 -4 9 14 17 20 19 20 6z m-116 -49 c3 -5
-1 -9 -9 -9 -8 0 -12 4 -9 9 3 4 7 8 9 8 2 0 6 -4 9 -8z m-13244 -403 c0 -5
-4 -9 -8 -9 -5 0 -9 7 -9 15 0 8 4 12 9 9 4 -3 8 -9 8 -15z"/>
<path d="M8085 18531 c-3 -5 -2 -12 3 -15 5 -3 9 1 9 9 0 17 -3 19 -12 6z"/>
<path d="M8085 16611 c-3 -5 -2 -12 3 -15 5 -3 9 1 9 9 0 17 -3 19 -12 6z"/>
<path d="M8085 15651 c-3 -5 -2 -12 3 -15 5 -3 9 1 9 9 0 17 -3 19 -12 6z"/>
<path d="M8085 15011 c-3 -5 -2 -12 3 -15 5 -3 9 1 9 9 0 17 -3 19 -12 6z"/>
<path d="M8085 14371 c-3 -5 -2 -12 3 -15 5 -3 9 1 9 9 0 17 -3 19 -12 6z"/>
<path d="M8085 13731 c-3 -5 -2 -12 3 -15 5 -3 9 1 9 9 0 17 -3 19 -12 6z"/>
<path d="M20863 13645 c0 -8 4 -12 9 -9 5 3 6 10 3 15 -9 13 -12 11 -12 -6z"/>
<path d="M20863 13485 c0 -8 4 -12 9 -9 5 3 6 10 3 15 -9 13 -12 11 -12 -6z"/>
<path d="M8085 12771 c-3 -5 -2 -12 3 -15 5 -3 9 1 9 9 0 17 -3 19 -12 6z"/>
<path d="M22227 12537 c-3 -8 0 -14 7 -14 7 0 13 6 13 14 0 7 -4 13 -8 13 -4
0 -9 -6 -12 -13z"/>
<path d="M22286 12533 c-6 -14 -5 -15 5 -6 7 7 10 15 7 18 -3 3 -9 -2 -12 -12z"/>
<path d="M21926 12519 c4 -7 44 0 44 7 0 2 -11 3 -24 2 -14 -1 -23 -5 -20 -9z"/>
<path d="M8085 11641 c-3 -5 -2 -12 3 -15 5 -3 9 1 9 9 0 17 -3 19 -12 6z"/>
<path d="M7103 11493 c-17 -6 -17 -20 0 -20 8 0 14 6 14 14 0 7 -1 13 -1 12
-1 0 -7 -3 -13 -6z"/>
<path d="M22005 8590 c-3 -5 -5 -10 -3 -11 33 -8 38 -7 27 7 -14 17 -16 17
-24 4z"/>
<path d="M22086 8587 c3 -10 9 -15 12 -12 3 3 0 11 -7 18 -10 9 -11 8 -5 -6z"/>
<path d="M22245 8591 c-3 -6 -14 -8 -25 -6 -11 2 -23 -1 -26 -7 -4 -7 -2 -8 4
-4 7 4 12 1 12 -6 0 -9 3 -9 8 -2 4 6 19 10 34 9 22 -2 26 1 17 12 -14 16 -16
16 -24 4z"/>
<path d="M21869 8588 c-5 -18 -6 -38 -1 -34 7 8 12 36 6 36 -2 0 -4 -1 -5 -2z"/>
<path d="M21970 8580 c0 -5 5 -10 11 -10 5 0 7 5 4 10 -3 6 -8 10 -11 10 -2 0
-4 -4 -4 -10z"/>
<path d="M22113 8576 c-3 -6 -3 -8 2 -4 4 4 13 0 20 -9 9 -13 14 -13 20 -3 6
9 4 11 -5 5 -9 -6 -12 -4 -8 7 7 17 -19 21 -29 4z"/>
<path d="M21835 8270 c-3 -5 -1 -11 5 -15 6 -4 8 -10 5 -15 -3 -5 -1 -11 4
-14 5 -4 8 2 7 11 -2 10 1 21 6 24 5 3 3 9 -6 12 -8 3 -18 2 -21 -3z"/>
<path d="M21430 8086 c7 -7 13 -7 20 0 6 6 3 10 -10 10 -13 0 -16 -4 -10 -10z"/>
<path d="M21350 7720 c0 -5 5 -10 11 -10 5 0 7 5 4 10 -3 6 -8 10 -11 10 -2 0
-4 -4 -4 -10z"/>
<path d="M20976 7601 c-4 -5 -2 -12 3 -15 5 -4 12 -2 15 3 4 5 2 12 -3 15 -5
4 -12 2 -15 -3z"/>
<path d="M21270 7595 c0 -6 6 -12 13 -12 8 0 14 6 14 12 0 6 -6 12 -14 12 -7
0 -13 -6 -13 -12z"/>
<path d="M20533 7107 c-3 -4 -2 -11 1 -14 3 -4 6 -1 6 6 0 8 5 9 18 2 13 -7
19 -6 19 2 0 14 -36 17 -44 4z"/>
<path d="M20597 7113 c-4 -3 -7 -11 -7 -17 0 -6 5 -5 12 2 6 6 9 14 7 17 -3 3
-9 2 -12 -2z"/>
<path d="M20757 7113 c-4 -3 -7 -11 -7 -17 0 -6 5 -5 12 2 6 6 9 14 7 17 -3 3
-9 2 -12 -2z"/>
<path d="M7110 7000 c0 -13 18 -22 24 -11 3 5 -1 11 -9 15 -8 3 -15 1 -15 -4z"/>
<path d="M20370 7006 c0 -2 7 -7 16 -10 8 -3 12 -2 9 4 -6 10 -25 14 -25 6z"/>
<path d="M7097 6817 c-3 -8 0 -14 7 -14 7 0 13 6 13 14 0 7 -4 13 -8 13 -4 0
-9 -6 -12 -13z"/>
<path d="M7104 6782 c3 -5 0 -13 -6 -15 -9 -4 -10 -6 -1 -6 17 -1 25 16 12 25
-7 4 -9 3 -5 -4z"/>
<path d="M20367 6784 c-7 -7 2 -34 12 -34 4 0 7 9 8 20 2 19 -8 26 -20 14z"/>
</g>
</svg>
